<svg xmlns="http://www.w3.org/2000/svg" xml:space="preserve" viewBox="0 0 512 512">
  <g fill="#87dfd6">
    <circle cx="256" cy="100.174" r="22.261"/>
    <path d="M456.348 233.739h44.522v133.565h-44.522zm-445.218 0h44.522v133.565H11.13z"/>
  </g>
  <path fill="#dff5f2" d="M167.699 166.957H55.652v267.13h400.696v-267.13z"/>
  <g fill="#87dfd6">
    <circle cx="166.957" cy="278.261" r="22.261"/>
    <circle cx="345.043" cy="278.261" r="22.261"/>
  </g>
  <path fill="#4a7dba" d="M256 378.435c30.736 0 55.652-24.917 55.652-55.652H200.348c0 30.735 24.916 55.652 55.652 55.652z"/>
  <path d="M123.659 171.208c.278.679.623 1.325 1.024 1.926.401.612.868 1.18 1.38 1.692s1.08.979 1.692 1.38c.601.412 1.258.746 1.926 1.024s1.369.501 2.081.646c.712.134 1.447.211 2.17.211.735 0 1.458-.078 2.182-.211.712-.145 1.414-.367 2.081-.646s1.313-.612 1.914-1.024c.612-.401 1.18-.868 1.703-1.38.512-.512.968-1.08 1.38-1.692.401-.601.746-1.247 1.024-1.926.278-.668.49-1.369.634-2.081.145-.712.211-1.447.211-2.17 0-.723-.067-1.458-.211-2.17-.145-.712-.356-1.414-.634-2.081-.278-.679-.623-1.325-1.024-1.926-.412-.612-.868-1.18-1.38-1.692-.523-.512-1.091-.979-1.703-1.38-.601-.401-1.247-.746-1.914-1.024-.668-.278-1.369-.501-2.081-.634a11.031 11.031 0 0 0-4.352 0c-.712.134-1.414.356-2.081.634-.668.278-1.325.623-1.926 1.024-.612.401-1.18.868-1.692 1.38-.512.512-.979 1.08-1.38 1.692-.401.601-.746 1.247-1.024 1.926-.278.668-.49 1.369-.634 2.081-.145.712-.223 1.447-.223 2.17 0 .723.078 1.458.223 2.17.144.712.356 1.414.634 2.081z"/>
  <path d="M500.87 222.609h-33.391v-55.652c0-6.147-4.983-11.13-11.13-11.13H267.13v-24.175c12.955-4.595 22.261-16.966 22.261-31.477 0-18.412-14.979-33.391-33.391-33.391s-33.391 14.979-33.391 33.391c0 14.51 9.306 26.882 22.261 31.477v24.175h-77.171c-6.147 0-11.13 4.983-11.13 11.13s4.983 11.13 11.13 11.13h277.518v244.869H66.783V178.087h33.391c6.147 0 11.13-4.983 11.13-11.13s-4.983-11.13-11.13-11.13H55.652c-6.147 0-11.13 4.983-11.13 11.13v55.652H11.13c-6.147 0-11.13 4.983-11.13 11.13v133.565c0 6.147 4.983 11.13 11.13 11.13h33.391v55.652c0 6.147 4.983 11.13 11.13 11.13h400.696c6.147 0 11.13-4.983 11.13-11.13v-55.652h33.391c6.147 0 11.13-4.983 11.13-11.13V233.739c.002-6.147-4.981-11.13-11.128-11.13zM256 89.043c6.137 0 11.13 4.993 11.13 11.13s-4.993 11.13-11.13 11.13c-6.137 0-11.13-4.993-11.13-11.13s4.993-11.13 11.13-11.13zM22.261 356.174V244.87h22.261v111.304H22.261zm467.478 0h-22.261V244.87h22.261v111.304z"/>
  <path d="M166.957 244.87c-18.412 0-33.391 14.979-33.391 33.391s14.979 33.391 33.391 33.391 33.391-14.979 33.391-33.391-14.98-33.391-33.391-33.391zm0 44.521c-6.137 0-11.13-4.993-11.13-11.13s4.993-11.13 11.13-11.13 11.13 4.993 11.13 11.13-4.993 11.13-11.13 11.13zm178.086 22.261c18.412 0 33.391-14.979 33.391-33.391s-14.979-33.391-33.391-33.391-33.391 14.979-33.391 33.391 14.98 33.391 33.391 33.391zm0-44.522c6.137 0 11.13 4.993 11.13 11.13s-4.993 11.13-11.13 11.13-11.13-4.993-11.13-11.13 4.993-11.13 11.13-11.13zm-144.695 44.522c-6.147 0-11.13 4.983-11.13 11.13 0 36.824 29.959 66.783 66.783 66.783s66.783-29.959 66.783-66.783c0-6.147-4.983-11.13-11.13-11.13H200.348zM256 367.304c-20.707 0-38.158-14.21-43.113-33.391h86.226c-4.955 19.181-22.406 33.391-43.113 33.391z"/>
</svg>