<?xml version="1.0" standalone="no"?>
<!DOCTYPE svg PUBLIC "-//W3C//DTD SVG 20010904//EN"
 "http://www.w3.org/TR/2001/REC-SVG-20010904/DTD/svg10.dtd">
<svg version="1.0" xmlns="http://www.w3.org/2000/svg"
 width="700.000000pt" height="700.000000pt" viewBox="0 0 700.000000 700.000000"
 preserveAspectRatio="xMidYMid meet">
<metadata>
Created by potrace 1.14, written by Peter Selinger 2001-2017
</metadata>
<g transform="translate(0.000000,700.000000) scale(0.100000,-0.100000)"
fill="#000000" stroke="none">
<path d="M3280 6994 c-19 -2 -84 -9 -145 -14 -578 -56 -1180 -283 -1660 -625
-237 -169 -531 -446 -709 -670 -416 -521 -673 -1147 -748 -1820 -17 -155 -17
-575 0 -730 52 -469 198 -931 418 -1327 290 -523 731 -983 1239 -1294 439
-269 920 -432 1460 -496 145 -17 576 -17 730 0 822 91 1556 447 2131 1034 203
206 348 390 487 618 274 449 433 916 499 1465 16 136 16 592 0 730 -86 725
-352 1347 -803 1885 -122 145 -351 370 -494 484 -510 407 -1117 661 -1775 742
-117 15 -553 27 -630 18z m-1340 -1404 c177 -49 381 -141 611 -276 l126 -74
64 29 c173 78 426 138 632 149 319 17 603 -30 873 -144 l82 -35 93 57 c227
138 455 242 636 291 77 21 122 27 208 27 100 1 115 -2 170 -27 33 -16 71 -38
84 -50 61 -57 101 -162 101 -268 0 -190 -120 -509 -310 -822 l-71 -119 35 -81
c112 -263 161 -556 145 -869 -11 -207 -64 -435 -145 -624 l-35 -81 67 -109
c36 -60 99 -176 139 -259 198 -403 226 -668 87 -826 -41 -47 -134 -88 -215
-96 -195 -18 -524 98 -884 312 l-112 66 -39 -20 c-21 -11 -93 -38 -158 -61
-438 -151 -948 -134 -1370 46 l-81 35 -84 -52 c-116 -72 -346 -190 -455 -233
-164 -65 -276 -90 -399 -90 -119 0 -169 14 -242 70 -98 75 -133 224 -98 413
34 175 154 455 299 695 l67 109 -35 81 c-114 270 -161 554 -144 874 11 208 61
423 144 618 l34 80 -72 120 c-205 341 -316 650 -306 853 8 164 91 274 235 311
59 15 238 4 323 -20z"/>
<path d="M1661 5460 c-44 -10 -81 -39 -106 -81 -16 -28 -20 -50 -19 -124 2
-147 67 -333 206 -591 108 -200 92 -193 170 -77 132 194 293 356 488 491 52
36 99 68 103 72 18 16 -320 192 -484 254 -93 34 -243 67 -298 65 -14 -1 -41
-5 -60 -9z"/>
<path d="M5195 5460 c-81 -13 -166 -37 -261 -76 -94 -37 -316 -150 -397 -200
l-47 -30 97 -66 c203 -138 378 -316 518 -525 26 -40 51 -70 56 -67 13 8 117
197 169 308 158 335 178 566 55 637 -37 21 -123 30 -190 19z"/>
<path d="M1815 2470 c-92 -145 -214 -411 -257 -559 -30 -105 -31 -242 -2 -291
58 -99 188 -112 416 -39 101 32 346 147 469 220 58 35 68 45 56 53 -8 6 -56
40 -106 75 -202 141 -380 326 -510 529 -18 28 -35 52 -37 52 -2 0 -15 -18 -29
-40z"/>
<path d="M5115 2453 c-150 -226 -335 -413 -553 -558 l-73 -49 53 -33 c79 -50
294 -158 391 -197 185 -75 364 -99 442 -60 70 34 80 59 80 192 -1 110 -3 124
-42 238 -41 120 -138 327 -215 457 -22 37 -41 67 -43 67 -1 0 -19 -26 -40 -57z"/>
</g>
</svg>
