<svg xmlns="http://www.w3.org/2000/svg" xml:space="preserve" width="220" height="220" viewBox="-51.2 -51.2 614.4 614.4"><path fill="#0dcb81" stroke-width="0" d="M256 456.346c51.874-5.201 104.598 30.319 152.293 9.267 51.796-22.862 89.718-71.487 109.149-124.665 19.859-54.35 22.674-116.866-1.723-169.336-23.163-49.818-82.285-66.585-124.383-101.886C344.683 30.607 316.726-41.799 256-46.17 195.348-50.537 141.785.2 105.726 49.166 75.06 90.809 98.265 150.772 76.441 197.658 49.222 256.13-35.2 285.89-34.485 350.384c.709 63.93 54.197 126.26 114.26 148.17 58.169 21.218 114.616-36.03 176.225-42.208"/><path d="M485.517 52.966H26.483C11.857 52.966 0 64.822 0 79.448v353.103c0 14.626 11.857 26.483 26.483 26.483h459.034c14.626 0 26.483-11.857 26.483-26.483V79.448c0-14.626-11.857-26.482-26.483-26.482z" style="fill:#eff2fa"/><circle cx="35.31" cy="88.276" r="8.828" style="fill:#f6475d"/><circle cx="61.793" cy="88.276" r="8.828" style="fill:#f6475d"/><circle cx="88.276" cy="88.276" r="8.828" style="fill:#f6475d"/><path d="M476.69 97.103H123.586a8.829 8.829 0 0 1 0-17.656H476.69a8.829 8.829 0 0 1 0 17.656zM485.517 441.379H26.483a8.829 8.829 0 0 1-8.828-8.828V132.414a8.829 8.829 0 0 1 8.828-8.828h459.034a8.829 8.829 0 0 1 8.828 8.828v300.138a8.828 8.828 0 0 1-8.828 8.827z" style="fill:#f6475d"/><path d="M167.724 308.966h-8.828V220.69a8.829 8.829 0 0 0-17.656 0v88.276H98.854l15.762-86.697a8.828 8.828 0 0 0-7.106-10.264c-4.794-.875-9.393 2.31-10.264 7.106l-17.654 97.103a8.828 8.828 0 0 0 8.685 10.406h52.966v17.655a8.829 8.829 0 0 0 17.656 0V326.62h8.828c4.875 0 8.828-3.953 8.828-8.828s-3.957-8.826-8.831-8.826zM423.724 308.966h-8.828V220.69a8.829 8.829 0 0 0-17.656 0v88.276h-42.388l15.763-86.697a8.827 8.827 0 0 0-7.106-10.264 8.823 8.823 0 0 0-10.264 7.106l-17.655 97.103a8.828 8.828 0 0 0 8.685 10.406h52.966v17.655a8.829 8.829 0 0 0 17.656 0V326.62h8.828c4.875 0 8.828-3.953 8.828-8.828s-3.955-8.826-8.829-8.826zM308.964 353.103a8.836 8.836 0 0 1-3.948-.931l-13.707-6.854-13.707 6.854a8.832 8.832 0 0 1-7.896 0l-13.707-6.854-13.707 6.854a8.832 8.832 0 0 1-7.896 0l-13.707-6.854-13.707 6.854a8.827 8.827 0 0 1-12.775-7.895v-70.621c0-34.072 27.72-61.793 61.793-61.793s61.793 27.721 61.793 61.793v70.621a8.829 8.829 0 0 1-8.829 8.826zm-52.965-26.482c1.353 0 2.705.31 3.948.931l13.707 6.854 13.707-6.854a8.832 8.832 0 0 1 7.896 0l4.879 2.44v-56.337c0-24.338-19.799-44.138-44.137-44.138-24.339 0-44.139 19.8-44.139 44.138v56.338l4.879-2.44a8.832 8.832 0 0 1 7.896 0l13.707 6.854 13.707-6.854a8.833 8.833 0 0 1 3.95-.932z" style="fill:#fff"/><path d="M238.344 282.483a8.829 8.829 0 0 1-8.828-8.828v-8.828a8.829 8.829 0 0 1 17.656 0v8.828a8.83 8.83 0 0 1-8.828 8.828zM273.654 282.483a8.829 8.829 0 0 1-8.828-8.828v-8.828a8.829 8.829 0 0 1 17.656 0v8.828a8.829 8.829 0 0 1-8.828 8.828z" style="fill:#fff"/></svg>